%
M48
M72
T01C0.0200
T02C0.0320
T03C0.0350
T04C0.0394
T05C0.0791
T06C0.1377
%
T01
X14650Y26750
X15520Y27080
X16210Y28100
X15140Y29290
X14120Y28100
T02
X14640Y19640
X15640Y19640
X23640Y19640
X24640Y19640
X24640Y10640
X23640Y10640
X15640Y10640
X14640Y10640
X6640Y10640
X5640Y10640
X5640Y1640
X6640Y1640
X14640Y1640
X15640Y1640
X6640Y19640
X5640Y19640
T03
X6140Y15140
X7140Y15140
X15140Y15140
X16140Y15140
X24140Y15140
X25140Y15140
X25140Y24140
X24140Y24140
X16140Y24140
X15140Y24140
X7140Y24140
X6140Y24140
X6140Y6140
X7140Y6140
X15140Y6140
X16140Y6140
T04
X19640Y7977
X19640Y4040
X19640Y13040
X19640Y16977
X19640Y21840
X19640Y25777
X10640Y25740
X10640Y21803
X10640Y17040
X10640Y13103
X10640Y7977
X10640Y4040
X28640Y12903
X28640Y16840
X28640Y21703
X28640Y25640
T05
X26140Y26140
X22140Y22140
X26140Y17140
X22140Y13140
X17140Y17140
X13140Y13140
X17140Y8140
X13140Y4140
X8140Y8140
X4140Y4140
X4140Y13140
X8140Y17140
X4140Y22140
X8140Y26140
X13140Y22140
X17140Y26140
T06
X2140Y2140
X2140Y28140
X28140Y28140
X28140Y2140
M30
