G75*
G70*
%OFA0B0*%
%FSLAX24Y24*%
%IPPOS*%
%LPD*%
%AMOC8*
5,1,8,0,0,1.08239X$1,22.5*
%
%ADD10C,0.2780*%
%ADD11C,0.0630*%
%ADD12C,0.1267*%
%ADD13C,0.0848*%
%ADD14C,0.0674*%
%ADD15C,0.0730*%
%ADD16R,0.0476X0.0476*%
%ADD17C,0.3180*%
%ADD18R,0.1661X0.1661*%
D10*
X002500Y003650D03*
X002500Y009900D03*
X002500Y016150D03*
X002500Y021150D03*
X002500Y027400D03*
X002500Y033650D03*
X046500Y033650D03*
X046500Y027400D03*
X046500Y021150D03*
X046500Y016150D03*
X046500Y009900D03*
X046500Y003650D03*
D11*
X041000Y015200D03*
X040000Y015200D03*
X032000Y015200D03*
X031000Y015200D03*
X023000Y015200D03*
X022000Y015200D03*
X014000Y015200D03*
X013000Y015200D03*
X013000Y029200D03*
X014000Y029200D03*
X022000Y029200D03*
X023000Y029200D03*
X031000Y029200D03*
X032000Y029200D03*
X040000Y029200D03*
X041000Y029200D03*
D12*
X042000Y031200D03*
X038000Y027200D03*
X033000Y031200D03*
X029000Y027200D03*
X024000Y031200D03*
X020000Y027200D03*
X015000Y031200D03*
X011000Y027200D03*
X015000Y017200D03*
X011000Y013200D03*
X020000Y013200D03*
X024000Y017200D03*
X029000Y013200D03*
X033000Y017200D03*
X038000Y013200D03*
X042000Y017200D03*
D13*
X028454Y003650D03*
X028691Y001721D03*
X022746Y003650D03*
X022509Y001721D03*
D14*
X018900Y002553D02*
X018900Y003147D01*
X017900Y003147D02*
X017900Y002553D01*
X016900Y002553D02*
X016900Y003147D01*
X015900Y003147D02*
X015900Y002553D01*
X014900Y002553D02*
X014900Y003147D01*
X013900Y003147D02*
X013900Y002553D01*
X012900Y002553D02*
X012900Y003147D01*
X011900Y003147D02*
X011900Y002553D01*
X010900Y002553D02*
X010900Y003147D01*
X009900Y003147D02*
X009900Y002553D01*
X008900Y002553D02*
X008900Y003147D01*
X007900Y003147D02*
X007900Y002553D01*
X006900Y002553D02*
X006900Y003147D01*
X005900Y003147D02*
X005900Y002553D01*
D15*
X006300Y018300D03*
X004700Y018300D03*
X040700Y018350D03*
X044950Y018350D03*
D16*
X027273Y004823D03*
X026683Y004833D03*
X026092Y004842D03*
X025502Y004852D03*
X024320Y003330D03*
X019900Y005250D03*
D17*
X002500Y003650D03*
X002500Y009900D03*
X002500Y016150D03*
X002500Y021150D03*
X002500Y027400D03*
X002500Y033650D03*
X046500Y033650D03*
X046500Y027400D03*
X046500Y021150D03*
X046500Y016150D03*
X046500Y009900D03*
X046500Y003650D03*
D18*
X047100Y006450D03*
X047100Y030450D03*
X002100Y030450D03*
X002100Y006450D03*
M02*
