G75*
G70*
%OFA0B0*%
%FSLAX24Y24*%
%IPPOS*%
%LPD*%
%AMOC8*
5,1,8,0,0,1.08239X$1,22.5*
%
%ADD10C,0.0000*%
%ADD11C,0.0100*%
D10*
X001150Y003650D02*
X001152Y003723D01*
X001158Y003796D01*
X001168Y003868D01*
X001182Y003940D01*
X001199Y004011D01*
X001221Y004081D01*
X001246Y004150D01*
X001275Y004217D01*
X001307Y004282D01*
X001343Y004346D01*
X001383Y004408D01*
X001425Y004467D01*
X001471Y004524D01*
X001520Y004578D01*
X001572Y004630D01*
X001626Y004679D01*
X001683Y004725D01*
X001742Y004767D01*
X001804Y004807D01*
X001868Y004843D01*
X001933Y004875D01*
X002000Y004904D01*
X002069Y004929D01*
X002139Y004951D01*
X002210Y004968D01*
X002282Y004982D01*
X002354Y004992D01*
X002427Y004998D01*
X002500Y005000D01*
X002573Y004998D01*
X002646Y004992D01*
X002718Y004982D01*
X002790Y004968D01*
X002861Y004951D01*
X002931Y004929D01*
X003000Y004904D01*
X003067Y004875D01*
X003132Y004843D01*
X003196Y004807D01*
X003258Y004767D01*
X003317Y004725D01*
X003374Y004679D01*
X003428Y004630D01*
X003480Y004578D01*
X003529Y004524D01*
X003575Y004467D01*
X003617Y004408D01*
X003657Y004346D01*
X003693Y004282D01*
X003725Y004217D01*
X003754Y004150D01*
X003779Y004081D01*
X003801Y004011D01*
X003818Y003940D01*
X003832Y003868D01*
X003842Y003796D01*
X003848Y003723D01*
X003850Y003650D01*
X003848Y003577D01*
X003842Y003504D01*
X003832Y003432D01*
X003818Y003360D01*
X003801Y003289D01*
X003779Y003219D01*
X003754Y003150D01*
X003725Y003083D01*
X003693Y003018D01*
X003657Y002954D01*
X003617Y002892D01*
X003575Y002833D01*
X003529Y002776D01*
X003480Y002722D01*
X003428Y002670D01*
X003374Y002621D01*
X003317Y002575D01*
X003258Y002533D01*
X003196Y002493D01*
X003132Y002457D01*
X003067Y002425D01*
X003000Y002396D01*
X002931Y002371D01*
X002861Y002349D01*
X002790Y002332D01*
X002718Y002318D01*
X002646Y002308D01*
X002573Y002302D01*
X002500Y002300D01*
X002427Y002302D01*
X002354Y002308D01*
X002282Y002318D01*
X002210Y002332D01*
X002139Y002349D01*
X002069Y002371D01*
X002000Y002396D01*
X001933Y002425D01*
X001868Y002457D01*
X001804Y002493D01*
X001742Y002533D01*
X001683Y002575D01*
X001626Y002621D01*
X001572Y002670D01*
X001520Y002722D01*
X001471Y002776D01*
X001425Y002833D01*
X001383Y002892D01*
X001343Y002954D01*
X001307Y003018D01*
X001275Y003083D01*
X001246Y003150D01*
X001221Y003219D01*
X001199Y003289D01*
X001182Y003360D01*
X001168Y003432D01*
X001158Y003504D01*
X001152Y003577D01*
X001150Y003650D01*
X001150Y009900D02*
X001152Y009973D01*
X001158Y010046D01*
X001168Y010118D01*
X001182Y010190D01*
X001199Y010261D01*
X001221Y010331D01*
X001246Y010400D01*
X001275Y010467D01*
X001307Y010532D01*
X001343Y010596D01*
X001383Y010658D01*
X001425Y010717D01*
X001471Y010774D01*
X001520Y010828D01*
X001572Y010880D01*
X001626Y010929D01*
X001683Y010975D01*
X001742Y011017D01*
X001804Y011057D01*
X001868Y011093D01*
X001933Y011125D01*
X002000Y011154D01*
X002069Y011179D01*
X002139Y011201D01*
X002210Y011218D01*
X002282Y011232D01*
X002354Y011242D01*
X002427Y011248D01*
X002500Y011250D01*
X002573Y011248D01*
X002646Y011242D01*
X002718Y011232D01*
X002790Y011218D01*
X002861Y011201D01*
X002931Y011179D01*
X003000Y011154D01*
X003067Y011125D01*
X003132Y011093D01*
X003196Y011057D01*
X003258Y011017D01*
X003317Y010975D01*
X003374Y010929D01*
X003428Y010880D01*
X003480Y010828D01*
X003529Y010774D01*
X003575Y010717D01*
X003617Y010658D01*
X003657Y010596D01*
X003693Y010532D01*
X003725Y010467D01*
X003754Y010400D01*
X003779Y010331D01*
X003801Y010261D01*
X003818Y010190D01*
X003832Y010118D01*
X003842Y010046D01*
X003848Y009973D01*
X003850Y009900D01*
X003848Y009827D01*
X003842Y009754D01*
X003832Y009682D01*
X003818Y009610D01*
X003801Y009539D01*
X003779Y009469D01*
X003754Y009400D01*
X003725Y009333D01*
X003693Y009268D01*
X003657Y009204D01*
X003617Y009142D01*
X003575Y009083D01*
X003529Y009026D01*
X003480Y008972D01*
X003428Y008920D01*
X003374Y008871D01*
X003317Y008825D01*
X003258Y008783D01*
X003196Y008743D01*
X003132Y008707D01*
X003067Y008675D01*
X003000Y008646D01*
X002931Y008621D01*
X002861Y008599D01*
X002790Y008582D01*
X002718Y008568D01*
X002646Y008558D01*
X002573Y008552D01*
X002500Y008550D01*
X002427Y008552D01*
X002354Y008558D01*
X002282Y008568D01*
X002210Y008582D01*
X002139Y008599D01*
X002069Y008621D01*
X002000Y008646D01*
X001933Y008675D01*
X001868Y008707D01*
X001804Y008743D01*
X001742Y008783D01*
X001683Y008825D01*
X001626Y008871D01*
X001572Y008920D01*
X001520Y008972D01*
X001471Y009026D01*
X001425Y009083D01*
X001383Y009142D01*
X001343Y009204D01*
X001307Y009268D01*
X001275Y009333D01*
X001246Y009400D01*
X001221Y009469D01*
X001199Y009539D01*
X001182Y009610D01*
X001168Y009682D01*
X001158Y009754D01*
X001152Y009827D01*
X001150Y009900D01*
X001150Y016150D02*
X001152Y016223D01*
X001158Y016296D01*
X001168Y016368D01*
X001182Y016440D01*
X001199Y016511D01*
X001221Y016581D01*
X001246Y016650D01*
X001275Y016717D01*
X001307Y016782D01*
X001343Y016846D01*
X001383Y016908D01*
X001425Y016967D01*
X001471Y017024D01*
X001520Y017078D01*
X001572Y017130D01*
X001626Y017179D01*
X001683Y017225D01*
X001742Y017267D01*
X001804Y017307D01*
X001868Y017343D01*
X001933Y017375D01*
X002000Y017404D01*
X002069Y017429D01*
X002139Y017451D01*
X002210Y017468D01*
X002282Y017482D01*
X002354Y017492D01*
X002427Y017498D01*
X002500Y017500D01*
X002573Y017498D01*
X002646Y017492D01*
X002718Y017482D01*
X002790Y017468D01*
X002861Y017451D01*
X002931Y017429D01*
X003000Y017404D01*
X003067Y017375D01*
X003132Y017343D01*
X003196Y017307D01*
X003258Y017267D01*
X003317Y017225D01*
X003374Y017179D01*
X003428Y017130D01*
X003480Y017078D01*
X003529Y017024D01*
X003575Y016967D01*
X003617Y016908D01*
X003657Y016846D01*
X003693Y016782D01*
X003725Y016717D01*
X003754Y016650D01*
X003779Y016581D01*
X003801Y016511D01*
X003818Y016440D01*
X003832Y016368D01*
X003842Y016296D01*
X003848Y016223D01*
X003850Y016150D01*
X003848Y016077D01*
X003842Y016004D01*
X003832Y015932D01*
X003818Y015860D01*
X003801Y015789D01*
X003779Y015719D01*
X003754Y015650D01*
X003725Y015583D01*
X003693Y015518D01*
X003657Y015454D01*
X003617Y015392D01*
X003575Y015333D01*
X003529Y015276D01*
X003480Y015222D01*
X003428Y015170D01*
X003374Y015121D01*
X003317Y015075D01*
X003258Y015033D01*
X003196Y014993D01*
X003132Y014957D01*
X003067Y014925D01*
X003000Y014896D01*
X002931Y014871D01*
X002861Y014849D01*
X002790Y014832D01*
X002718Y014818D01*
X002646Y014808D01*
X002573Y014802D01*
X002500Y014800D01*
X002427Y014802D01*
X002354Y014808D01*
X002282Y014818D01*
X002210Y014832D01*
X002139Y014849D01*
X002069Y014871D01*
X002000Y014896D01*
X001933Y014925D01*
X001868Y014957D01*
X001804Y014993D01*
X001742Y015033D01*
X001683Y015075D01*
X001626Y015121D01*
X001572Y015170D01*
X001520Y015222D01*
X001471Y015276D01*
X001425Y015333D01*
X001383Y015392D01*
X001343Y015454D01*
X001307Y015518D01*
X001275Y015583D01*
X001246Y015650D01*
X001221Y015719D01*
X001199Y015789D01*
X001182Y015860D01*
X001168Y015932D01*
X001158Y016004D01*
X001152Y016077D01*
X001150Y016150D01*
X001150Y021150D02*
X001152Y021223D01*
X001158Y021296D01*
X001168Y021368D01*
X001182Y021440D01*
X001199Y021511D01*
X001221Y021581D01*
X001246Y021650D01*
X001275Y021717D01*
X001307Y021782D01*
X001343Y021846D01*
X001383Y021908D01*
X001425Y021967D01*
X001471Y022024D01*
X001520Y022078D01*
X001572Y022130D01*
X001626Y022179D01*
X001683Y022225D01*
X001742Y022267D01*
X001804Y022307D01*
X001868Y022343D01*
X001933Y022375D01*
X002000Y022404D01*
X002069Y022429D01*
X002139Y022451D01*
X002210Y022468D01*
X002282Y022482D01*
X002354Y022492D01*
X002427Y022498D01*
X002500Y022500D01*
X002573Y022498D01*
X002646Y022492D01*
X002718Y022482D01*
X002790Y022468D01*
X002861Y022451D01*
X002931Y022429D01*
X003000Y022404D01*
X003067Y022375D01*
X003132Y022343D01*
X003196Y022307D01*
X003258Y022267D01*
X003317Y022225D01*
X003374Y022179D01*
X003428Y022130D01*
X003480Y022078D01*
X003529Y022024D01*
X003575Y021967D01*
X003617Y021908D01*
X003657Y021846D01*
X003693Y021782D01*
X003725Y021717D01*
X003754Y021650D01*
X003779Y021581D01*
X003801Y021511D01*
X003818Y021440D01*
X003832Y021368D01*
X003842Y021296D01*
X003848Y021223D01*
X003850Y021150D01*
X003848Y021077D01*
X003842Y021004D01*
X003832Y020932D01*
X003818Y020860D01*
X003801Y020789D01*
X003779Y020719D01*
X003754Y020650D01*
X003725Y020583D01*
X003693Y020518D01*
X003657Y020454D01*
X003617Y020392D01*
X003575Y020333D01*
X003529Y020276D01*
X003480Y020222D01*
X003428Y020170D01*
X003374Y020121D01*
X003317Y020075D01*
X003258Y020033D01*
X003196Y019993D01*
X003132Y019957D01*
X003067Y019925D01*
X003000Y019896D01*
X002931Y019871D01*
X002861Y019849D01*
X002790Y019832D01*
X002718Y019818D01*
X002646Y019808D01*
X002573Y019802D01*
X002500Y019800D01*
X002427Y019802D01*
X002354Y019808D01*
X002282Y019818D01*
X002210Y019832D01*
X002139Y019849D01*
X002069Y019871D01*
X002000Y019896D01*
X001933Y019925D01*
X001868Y019957D01*
X001804Y019993D01*
X001742Y020033D01*
X001683Y020075D01*
X001626Y020121D01*
X001572Y020170D01*
X001520Y020222D01*
X001471Y020276D01*
X001425Y020333D01*
X001383Y020392D01*
X001343Y020454D01*
X001307Y020518D01*
X001275Y020583D01*
X001246Y020650D01*
X001221Y020719D01*
X001199Y020789D01*
X001182Y020860D01*
X001168Y020932D01*
X001158Y021004D01*
X001152Y021077D01*
X001150Y021150D01*
X001150Y027400D02*
X001152Y027473D01*
X001158Y027546D01*
X001168Y027618D01*
X001182Y027690D01*
X001199Y027761D01*
X001221Y027831D01*
X001246Y027900D01*
X001275Y027967D01*
X001307Y028032D01*
X001343Y028096D01*
X001383Y028158D01*
X001425Y028217D01*
X001471Y028274D01*
X001520Y028328D01*
X001572Y028380D01*
X001626Y028429D01*
X001683Y028475D01*
X001742Y028517D01*
X001804Y028557D01*
X001868Y028593D01*
X001933Y028625D01*
X002000Y028654D01*
X002069Y028679D01*
X002139Y028701D01*
X002210Y028718D01*
X002282Y028732D01*
X002354Y028742D01*
X002427Y028748D01*
X002500Y028750D01*
X002573Y028748D01*
X002646Y028742D01*
X002718Y028732D01*
X002790Y028718D01*
X002861Y028701D01*
X002931Y028679D01*
X003000Y028654D01*
X003067Y028625D01*
X003132Y028593D01*
X003196Y028557D01*
X003258Y028517D01*
X003317Y028475D01*
X003374Y028429D01*
X003428Y028380D01*
X003480Y028328D01*
X003529Y028274D01*
X003575Y028217D01*
X003617Y028158D01*
X003657Y028096D01*
X003693Y028032D01*
X003725Y027967D01*
X003754Y027900D01*
X003779Y027831D01*
X003801Y027761D01*
X003818Y027690D01*
X003832Y027618D01*
X003842Y027546D01*
X003848Y027473D01*
X003850Y027400D01*
X003848Y027327D01*
X003842Y027254D01*
X003832Y027182D01*
X003818Y027110D01*
X003801Y027039D01*
X003779Y026969D01*
X003754Y026900D01*
X003725Y026833D01*
X003693Y026768D01*
X003657Y026704D01*
X003617Y026642D01*
X003575Y026583D01*
X003529Y026526D01*
X003480Y026472D01*
X003428Y026420D01*
X003374Y026371D01*
X003317Y026325D01*
X003258Y026283D01*
X003196Y026243D01*
X003132Y026207D01*
X003067Y026175D01*
X003000Y026146D01*
X002931Y026121D01*
X002861Y026099D01*
X002790Y026082D01*
X002718Y026068D01*
X002646Y026058D01*
X002573Y026052D01*
X002500Y026050D01*
X002427Y026052D01*
X002354Y026058D01*
X002282Y026068D01*
X002210Y026082D01*
X002139Y026099D01*
X002069Y026121D01*
X002000Y026146D01*
X001933Y026175D01*
X001868Y026207D01*
X001804Y026243D01*
X001742Y026283D01*
X001683Y026325D01*
X001626Y026371D01*
X001572Y026420D01*
X001520Y026472D01*
X001471Y026526D01*
X001425Y026583D01*
X001383Y026642D01*
X001343Y026704D01*
X001307Y026768D01*
X001275Y026833D01*
X001246Y026900D01*
X001221Y026969D01*
X001199Y027039D01*
X001182Y027110D01*
X001168Y027182D01*
X001158Y027254D01*
X001152Y027327D01*
X001150Y027400D01*
X001150Y033650D02*
X001152Y033723D01*
X001158Y033796D01*
X001168Y033868D01*
X001182Y033940D01*
X001199Y034011D01*
X001221Y034081D01*
X001246Y034150D01*
X001275Y034217D01*
X001307Y034282D01*
X001343Y034346D01*
X001383Y034408D01*
X001425Y034467D01*
X001471Y034524D01*
X001520Y034578D01*
X001572Y034630D01*
X001626Y034679D01*
X001683Y034725D01*
X001742Y034767D01*
X001804Y034807D01*
X001868Y034843D01*
X001933Y034875D01*
X002000Y034904D01*
X002069Y034929D01*
X002139Y034951D01*
X002210Y034968D01*
X002282Y034982D01*
X002354Y034992D01*
X002427Y034998D01*
X002500Y035000D01*
X002573Y034998D01*
X002646Y034992D01*
X002718Y034982D01*
X002790Y034968D01*
X002861Y034951D01*
X002931Y034929D01*
X003000Y034904D01*
X003067Y034875D01*
X003132Y034843D01*
X003196Y034807D01*
X003258Y034767D01*
X003317Y034725D01*
X003374Y034679D01*
X003428Y034630D01*
X003480Y034578D01*
X003529Y034524D01*
X003575Y034467D01*
X003617Y034408D01*
X003657Y034346D01*
X003693Y034282D01*
X003725Y034217D01*
X003754Y034150D01*
X003779Y034081D01*
X003801Y034011D01*
X003818Y033940D01*
X003832Y033868D01*
X003842Y033796D01*
X003848Y033723D01*
X003850Y033650D01*
X003848Y033577D01*
X003842Y033504D01*
X003832Y033432D01*
X003818Y033360D01*
X003801Y033289D01*
X003779Y033219D01*
X003754Y033150D01*
X003725Y033083D01*
X003693Y033018D01*
X003657Y032954D01*
X003617Y032892D01*
X003575Y032833D01*
X003529Y032776D01*
X003480Y032722D01*
X003428Y032670D01*
X003374Y032621D01*
X003317Y032575D01*
X003258Y032533D01*
X003196Y032493D01*
X003132Y032457D01*
X003067Y032425D01*
X003000Y032396D01*
X002931Y032371D01*
X002861Y032349D01*
X002790Y032332D01*
X002718Y032318D01*
X002646Y032308D01*
X002573Y032302D01*
X002500Y032300D01*
X002427Y032302D01*
X002354Y032308D01*
X002282Y032318D01*
X002210Y032332D01*
X002139Y032349D01*
X002069Y032371D01*
X002000Y032396D01*
X001933Y032425D01*
X001868Y032457D01*
X001804Y032493D01*
X001742Y032533D01*
X001683Y032575D01*
X001626Y032621D01*
X001572Y032670D01*
X001520Y032722D01*
X001471Y032776D01*
X001425Y032833D01*
X001383Y032892D01*
X001343Y032954D01*
X001307Y033018D01*
X001275Y033083D01*
X001246Y033150D01*
X001221Y033219D01*
X001199Y033289D01*
X001182Y033360D01*
X001168Y033432D01*
X001158Y033504D01*
X001152Y033577D01*
X001150Y033650D01*
X045150Y033650D02*
X045152Y033723D01*
X045158Y033796D01*
X045168Y033868D01*
X045182Y033940D01*
X045199Y034011D01*
X045221Y034081D01*
X045246Y034150D01*
X045275Y034217D01*
X045307Y034282D01*
X045343Y034346D01*
X045383Y034408D01*
X045425Y034467D01*
X045471Y034524D01*
X045520Y034578D01*
X045572Y034630D01*
X045626Y034679D01*
X045683Y034725D01*
X045742Y034767D01*
X045804Y034807D01*
X045868Y034843D01*
X045933Y034875D01*
X046000Y034904D01*
X046069Y034929D01*
X046139Y034951D01*
X046210Y034968D01*
X046282Y034982D01*
X046354Y034992D01*
X046427Y034998D01*
X046500Y035000D01*
X046573Y034998D01*
X046646Y034992D01*
X046718Y034982D01*
X046790Y034968D01*
X046861Y034951D01*
X046931Y034929D01*
X047000Y034904D01*
X047067Y034875D01*
X047132Y034843D01*
X047196Y034807D01*
X047258Y034767D01*
X047317Y034725D01*
X047374Y034679D01*
X047428Y034630D01*
X047480Y034578D01*
X047529Y034524D01*
X047575Y034467D01*
X047617Y034408D01*
X047657Y034346D01*
X047693Y034282D01*
X047725Y034217D01*
X047754Y034150D01*
X047779Y034081D01*
X047801Y034011D01*
X047818Y033940D01*
X047832Y033868D01*
X047842Y033796D01*
X047848Y033723D01*
X047850Y033650D01*
X047848Y033577D01*
X047842Y033504D01*
X047832Y033432D01*
X047818Y033360D01*
X047801Y033289D01*
X047779Y033219D01*
X047754Y033150D01*
X047725Y033083D01*
X047693Y033018D01*
X047657Y032954D01*
X047617Y032892D01*
X047575Y032833D01*
X047529Y032776D01*
X047480Y032722D01*
X047428Y032670D01*
X047374Y032621D01*
X047317Y032575D01*
X047258Y032533D01*
X047196Y032493D01*
X047132Y032457D01*
X047067Y032425D01*
X047000Y032396D01*
X046931Y032371D01*
X046861Y032349D01*
X046790Y032332D01*
X046718Y032318D01*
X046646Y032308D01*
X046573Y032302D01*
X046500Y032300D01*
X046427Y032302D01*
X046354Y032308D01*
X046282Y032318D01*
X046210Y032332D01*
X046139Y032349D01*
X046069Y032371D01*
X046000Y032396D01*
X045933Y032425D01*
X045868Y032457D01*
X045804Y032493D01*
X045742Y032533D01*
X045683Y032575D01*
X045626Y032621D01*
X045572Y032670D01*
X045520Y032722D01*
X045471Y032776D01*
X045425Y032833D01*
X045383Y032892D01*
X045343Y032954D01*
X045307Y033018D01*
X045275Y033083D01*
X045246Y033150D01*
X045221Y033219D01*
X045199Y033289D01*
X045182Y033360D01*
X045168Y033432D01*
X045158Y033504D01*
X045152Y033577D01*
X045150Y033650D01*
X045150Y027400D02*
X045152Y027473D01*
X045158Y027546D01*
X045168Y027618D01*
X045182Y027690D01*
X045199Y027761D01*
X045221Y027831D01*
X045246Y027900D01*
X045275Y027967D01*
X045307Y028032D01*
X045343Y028096D01*
X045383Y028158D01*
X045425Y028217D01*
X045471Y028274D01*
X045520Y028328D01*
X045572Y028380D01*
X045626Y028429D01*
X045683Y028475D01*
X045742Y028517D01*
X045804Y028557D01*
X045868Y028593D01*
X045933Y028625D01*
X046000Y028654D01*
X046069Y028679D01*
X046139Y028701D01*
X046210Y028718D01*
X046282Y028732D01*
X046354Y028742D01*
X046427Y028748D01*
X046500Y028750D01*
X046573Y028748D01*
X046646Y028742D01*
X046718Y028732D01*
X046790Y028718D01*
X046861Y028701D01*
X046931Y028679D01*
X047000Y028654D01*
X047067Y028625D01*
X047132Y028593D01*
X047196Y028557D01*
X047258Y028517D01*
X047317Y028475D01*
X047374Y028429D01*
X047428Y028380D01*
X047480Y028328D01*
X047529Y028274D01*
X047575Y028217D01*
X047617Y028158D01*
X047657Y028096D01*
X047693Y028032D01*
X047725Y027967D01*
X047754Y027900D01*
X047779Y027831D01*
X047801Y027761D01*
X047818Y027690D01*
X047832Y027618D01*
X047842Y027546D01*
X047848Y027473D01*
X047850Y027400D01*
X047848Y027327D01*
X047842Y027254D01*
X047832Y027182D01*
X047818Y027110D01*
X047801Y027039D01*
X047779Y026969D01*
X047754Y026900D01*
X047725Y026833D01*
X047693Y026768D01*
X047657Y026704D01*
X047617Y026642D01*
X047575Y026583D01*
X047529Y026526D01*
X047480Y026472D01*
X047428Y026420D01*
X047374Y026371D01*
X047317Y026325D01*
X047258Y026283D01*
X047196Y026243D01*
X047132Y026207D01*
X047067Y026175D01*
X047000Y026146D01*
X046931Y026121D01*
X046861Y026099D01*
X046790Y026082D01*
X046718Y026068D01*
X046646Y026058D01*
X046573Y026052D01*
X046500Y026050D01*
X046427Y026052D01*
X046354Y026058D01*
X046282Y026068D01*
X046210Y026082D01*
X046139Y026099D01*
X046069Y026121D01*
X046000Y026146D01*
X045933Y026175D01*
X045868Y026207D01*
X045804Y026243D01*
X045742Y026283D01*
X045683Y026325D01*
X045626Y026371D01*
X045572Y026420D01*
X045520Y026472D01*
X045471Y026526D01*
X045425Y026583D01*
X045383Y026642D01*
X045343Y026704D01*
X045307Y026768D01*
X045275Y026833D01*
X045246Y026900D01*
X045221Y026969D01*
X045199Y027039D01*
X045182Y027110D01*
X045168Y027182D01*
X045158Y027254D01*
X045152Y027327D01*
X045150Y027400D01*
X045150Y021150D02*
X045152Y021223D01*
X045158Y021296D01*
X045168Y021368D01*
X045182Y021440D01*
X045199Y021511D01*
X045221Y021581D01*
X045246Y021650D01*
X045275Y021717D01*
X045307Y021782D01*
X045343Y021846D01*
X045383Y021908D01*
X045425Y021967D01*
X045471Y022024D01*
X045520Y022078D01*
X045572Y022130D01*
X045626Y022179D01*
X045683Y022225D01*
X045742Y022267D01*
X045804Y022307D01*
X045868Y022343D01*
X045933Y022375D01*
X046000Y022404D01*
X046069Y022429D01*
X046139Y022451D01*
X046210Y022468D01*
X046282Y022482D01*
X046354Y022492D01*
X046427Y022498D01*
X046500Y022500D01*
X046573Y022498D01*
X046646Y022492D01*
X046718Y022482D01*
X046790Y022468D01*
X046861Y022451D01*
X046931Y022429D01*
X047000Y022404D01*
X047067Y022375D01*
X047132Y022343D01*
X047196Y022307D01*
X047258Y022267D01*
X047317Y022225D01*
X047374Y022179D01*
X047428Y022130D01*
X047480Y022078D01*
X047529Y022024D01*
X047575Y021967D01*
X047617Y021908D01*
X047657Y021846D01*
X047693Y021782D01*
X047725Y021717D01*
X047754Y021650D01*
X047779Y021581D01*
X047801Y021511D01*
X047818Y021440D01*
X047832Y021368D01*
X047842Y021296D01*
X047848Y021223D01*
X047850Y021150D01*
X047848Y021077D01*
X047842Y021004D01*
X047832Y020932D01*
X047818Y020860D01*
X047801Y020789D01*
X047779Y020719D01*
X047754Y020650D01*
X047725Y020583D01*
X047693Y020518D01*
X047657Y020454D01*
X047617Y020392D01*
X047575Y020333D01*
X047529Y020276D01*
X047480Y020222D01*
X047428Y020170D01*
X047374Y020121D01*
X047317Y020075D01*
X047258Y020033D01*
X047196Y019993D01*
X047132Y019957D01*
X047067Y019925D01*
X047000Y019896D01*
X046931Y019871D01*
X046861Y019849D01*
X046790Y019832D01*
X046718Y019818D01*
X046646Y019808D01*
X046573Y019802D01*
X046500Y019800D01*
X046427Y019802D01*
X046354Y019808D01*
X046282Y019818D01*
X046210Y019832D01*
X046139Y019849D01*
X046069Y019871D01*
X046000Y019896D01*
X045933Y019925D01*
X045868Y019957D01*
X045804Y019993D01*
X045742Y020033D01*
X045683Y020075D01*
X045626Y020121D01*
X045572Y020170D01*
X045520Y020222D01*
X045471Y020276D01*
X045425Y020333D01*
X045383Y020392D01*
X045343Y020454D01*
X045307Y020518D01*
X045275Y020583D01*
X045246Y020650D01*
X045221Y020719D01*
X045199Y020789D01*
X045182Y020860D01*
X045168Y020932D01*
X045158Y021004D01*
X045152Y021077D01*
X045150Y021150D01*
X045150Y016150D02*
X045152Y016223D01*
X045158Y016296D01*
X045168Y016368D01*
X045182Y016440D01*
X045199Y016511D01*
X045221Y016581D01*
X045246Y016650D01*
X045275Y016717D01*
X045307Y016782D01*
X045343Y016846D01*
X045383Y016908D01*
X045425Y016967D01*
X045471Y017024D01*
X045520Y017078D01*
X045572Y017130D01*
X045626Y017179D01*
X045683Y017225D01*
X045742Y017267D01*
X045804Y017307D01*
X045868Y017343D01*
X045933Y017375D01*
X046000Y017404D01*
X046069Y017429D01*
X046139Y017451D01*
X046210Y017468D01*
X046282Y017482D01*
X046354Y017492D01*
X046427Y017498D01*
X046500Y017500D01*
X046573Y017498D01*
X046646Y017492D01*
X046718Y017482D01*
X046790Y017468D01*
X046861Y017451D01*
X046931Y017429D01*
X047000Y017404D01*
X047067Y017375D01*
X047132Y017343D01*
X047196Y017307D01*
X047258Y017267D01*
X047317Y017225D01*
X047374Y017179D01*
X047428Y017130D01*
X047480Y017078D01*
X047529Y017024D01*
X047575Y016967D01*
X047617Y016908D01*
X047657Y016846D01*
X047693Y016782D01*
X047725Y016717D01*
X047754Y016650D01*
X047779Y016581D01*
X047801Y016511D01*
X047818Y016440D01*
X047832Y016368D01*
X047842Y016296D01*
X047848Y016223D01*
X047850Y016150D01*
X047848Y016077D01*
X047842Y016004D01*
X047832Y015932D01*
X047818Y015860D01*
X047801Y015789D01*
X047779Y015719D01*
X047754Y015650D01*
X047725Y015583D01*
X047693Y015518D01*
X047657Y015454D01*
X047617Y015392D01*
X047575Y015333D01*
X047529Y015276D01*
X047480Y015222D01*
X047428Y015170D01*
X047374Y015121D01*
X047317Y015075D01*
X047258Y015033D01*
X047196Y014993D01*
X047132Y014957D01*
X047067Y014925D01*
X047000Y014896D01*
X046931Y014871D01*
X046861Y014849D01*
X046790Y014832D01*
X046718Y014818D01*
X046646Y014808D01*
X046573Y014802D01*
X046500Y014800D01*
X046427Y014802D01*
X046354Y014808D01*
X046282Y014818D01*
X046210Y014832D01*
X046139Y014849D01*
X046069Y014871D01*
X046000Y014896D01*
X045933Y014925D01*
X045868Y014957D01*
X045804Y014993D01*
X045742Y015033D01*
X045683Y015075D01*
X045626Y015121D01*
X045572Y015170D01*
X045520Y015222D01*
X045471Y015276D01*
X045425Y015333D01*
X045383Y015392D01*
X045343Y015454D01*
X045307Y015518D01*
X045275Y015583D01*
X045246Y015650D01*
X045221Y015719D01*
X045199Y015789D01*
X045182Y015860D01*
X045168Y015932D01*
X045158Y016004D01*
X045152Y016077D01*
X045150Y016150D01*
X045150Y009900D02*
X045152Y009973D01*
X045158Y010046D01*
X045168Y010118D01*
X045182Y010190D01*
X045199Y010261D01*
X045221Y010331D01*
X045246Y010400D01*
X045275Y010467D01*
X045307Y010532D01*
X045343Y010596D01*
X045383Y010658D01*
X045425Y010717D01*
X045471Y010774D01*
X045520Y010828D01*
X045572Y010880D01*
X045626Y010929D01*
X045683Y010975D01*
X045742Y011017D01*
X045804Y011057D01*
X045868Y011093D01*
X045933Y011125D01*
X046000Y011154D01*
X046069Y011179D01*
X046139Y011201D01*
X046210Y011218D01*
X046282Y011232D01*
X046354Y011242D01*
X046427Y011248D01*
X046500Y011250D01*
X046573Y011248D01*
X046646Y011242D01*
X046718Y011232D01*
X046790Y011218D01*
X046861Y011201D01*
X046931Y011179D01*
X047000Y011154D01*
X047067Y011125D01*
X047132Y011093D01*
X047196Y011057D01*
X047258Y011017D01*
X047317Y010975D01*
X047374Y010929D01*
X047428Y010880D01*
X047480Y010828D01*
X047529Y010774D01*
X047575Y010717D01*
X047617Y010658D01*
X047657Y010596D01*
X047693Y010532D01*
X047725Y010467D01*
X047754Y010400D01*
X047779Y010331D01*
X047801Y010261D01*
X047818Y010190D01*
X047832Y010118D01*
X047842Y010046D01*
X047848Y009973D01*
X047850Y009900D01*
X047848Y009827D01*
X047842Y009754D01*
X047832Y009682D01*
X047818Y009610D01*
X047801Y009539D01*
X047779Y009469D01*
X047754Y009400D01*
X047725Y009333D01*
X047693Y009268D01*
X047657Y009204D01*
X047617Y009142D01*
X047575Y009083D01*
X047529Y009026D01*
X047480Y008972D01*
X047428Y008920D01*
X047374Y008871D01*
X047317Y008825D01*
X047258Y008783D01*
X047196Y008743D01*
X047132Y008707D01*
X047067Y008675D01*
X047000Y008646D01*
X046931Y008621D01*
X046861Y008599D01*
X046790Y008582D01*
X046718Y008568D01*
X046646Y008558D01*
X046573Y008552D01*
X046500Y008550D01*
X046427Y008552D01*
X046354Y008558D01*
X046282Y008568D01*
X046210Y008582D01*
X046139Y008599D01*
X046069Y008621D01*
X046000Y008646D01*
X045933Y008675D01*
X045868Y008707D01*
X045804Y008743D01*
X045742Y008783D01*
X045683Y008825D01*
X045626Y008871D01*
X045572Y008920D01*
X045520Y008972D01*
X045471Y009026D01*
X045425Y009083D01*
X045383Y009142D01*
X045343Y009204D01*
X045307Y009268D01*
X045275Y009333D01*
X045246Y009400D01*
X045221Y009469D01*
X045199Y009539D01*
X045182Y009610D01*
X045168Y009682D01*
X045158Y009754D01*
X045152Y009827D01*
X045150Y009900D01*
X045150Y003650D02*
X045152Y003723D01*
X045158Y003796D01*
X045168Y003868D01*
X045182Y003940D01*
X045199Y004011D01*
X045221Y004081D01*
X045246Y004150D01*
X045275Y004217D01*
X045307Y004282D01*
X045343Y004346D01*
X045383Y004408D01*
X045425Y004467D01*
X045471Y004524D01*
X045520Y004578D01*
X045572Y004630D01*
X045626Y004679D01*
X045683Y004725D01*
X045742Y004767D01*
X045804Y004807D01*
X045868Y004843D01*
X045933Y004875D01*
X046000Y004904D01*
X046069Y004929D01*
X046139Y004951D01*
X046210Y004968D01*
X046282Y004982D01*
X046354Y004992D01*
X046427Y004998D01*
X046500Y005000D01*
X046573Y004998D01*
X046646Y004992D01*
X046718Y004982D01*
X046790Y004968D01*
X046861Y004951D01*
X046931Y004929D01*
X047000Y004904D01*
X047067Y004875D01*
X047132Y004843D01*
X047196Y004807D01*
X047258Y004767D01*
X047317Y004725D01*
X047374Y004679D01*
X047428Y004630D01*
X047480Y004578D01*
X047529Y004524D01*
X047575Y004467D01*
X047617Y004408D01*
X047657Y004346D01*
X047693Y004282D01*
X047725Y004217D01*
X047754Y004150D01*
X047779Y004081D01*
X047801Y004011D01*
X047818Y003940D01*
X047832Y003868D01*
X047842Y003796D01*
X047848Y003723D01*
X047850Y003650D01*
X047848Y003577D01*
X047842Y003504D01*
X047832Y003432D01*
X047818Y003360D01*
X047801Y003289D01*
X047779Y003219D01*
X047754Y003150D01*
X047725Y003083D01*
X047693Y003018D01*
X047657Y002954D01*
X047617Y002892D01*
X047575Y002833D01*
X047529Y002776D01*
X047480Y002722D01*
X047428Y002670D01*
X047374Y002621D01*
X047317Y002575D01*
X047258Y002533D01*
X047196Y002493D01*
X047132Y002457D01*
X047067Y002425D01*
X047000Y002396D01*
X046931Y002371D01*
X046861Y002349D01*
X046790Y002332D01*
X046718Y002318D01*
X046646Y002308D01*
X046573Y002302D01*
X046500Y002300D01*
X046427Y002302D01*
X046354Y002308D01*
X046282Y002318D01*
X046210Y002332D01*
X046139Y002349D01*
X046069Y002371D01*
X046000Y002396D01*
X045933Y002425D01*
X045868Y002457D01*
X045804Y002493D01*
X045742Y002533D01*
X045683Y002575D01*
X045626Y002621D01*
X045572Y002670D01*
X045520Y002722D01*
X045471Y002776D01*
X045425Y002833D01*
X045383Y002892D01*
X045343Y002954D01*
X045307Y003018D01*
X045275Y003083D01*
X045246Y003150D01*
X045221Y003219D01*
X045199Y003289D01*
X045182Y003360D01*
X045168Y003432D01*
X045158Y003504D01*
X045152Y003577D01*
X045150Y003650D01*
D11*
X001650Y000150D02*
X000150Y001650D01*
X000150Y034200D01*
X001650Y035700D01*
X047450Y035700D01*
X048950Y034200D01*
X048950Y001650D01*
X047450Y000150D01*
X001650Y000150D01*
M02*
