%
M48
M72
T01C0.0236
T02C0.0350
T03C0.0394
T04C0.0433
T05C0.0512
T06C0.0791
T07C0.1181
T08C0.2700
%
T01
X19900Y5250
X24320Y3330
X25502Y4852
X26092Y4842
X26683Y4833
X27273Y4823
T02
X31000Y15200
X32000Y15200
X40000Y15200
X41000Y15200
X23000Y15200
X22000Y15200
X14000Y15200
X13000Y15200
X13000Y29200
X14000Y29200
X22000Y29200
X23000Y29200
X31000Y29200
X32000Y29200
X40000Y29200
X41000Y29200
T03
X18900Y2850
X17900Y2850
X16900Y2850
X15900Y2850
X14900Y2850
X13900Y2850
X12900Y2850
X11900Y2850
X10900Y2850
X9900Y2850
X8900Y2850
X7900Y2850
X6900Y2850
X5900Y2850
T04
X6300Y18300
X4700Y18300
X40700Y18350
X44950Y18350
T05
X28454Y3650
X28691Y1721
X22746Y3650
X22509Y1721
T06
X20000Y13200
X24000Y17200
X29000Y13200
X33000Y17200
X38000Y13200
X42000Y17200
X38000Y27200
X42000Y31200
X33000Y31200
X29000Y27200
X24000Y31200
X20000Y27200
X15000Y31200
X11000Y27200
X15000Y17200
X11000Y13200
T07
X2100Y6450
X2100Y30450
X47100Y30450
X47100Y6450
T08
X2500Y3650
X2500Y3650
X2500Y9900
X2500Y9900
X2500Y16150
X2500Y16150
X2500Y21150
X2500Y21150
X2500Y27400
X2500Y27400
X2500Y33650
X2500Y33650
X46500Y33650
X46500Y33650
X46500Y27400
X46500Y27400
X46500Y21150
X46500Y21150
X46500Y16150
X46500Y16150
X46500Y9900
X46500Y9900
X46500Y3650
X46500Y3650
M30
