G75*
G70*
%OFA0B0*%
%FSLAX24Y24*%
%IPPOS*%
%LPD*%
%AMOC8*
5,1,8,0,0,1.08239X$1,22.5*
%
%ADD10R,0.0087X0.0315*%
%ADD11R,0.0669X0.0551*%
%ADD12R,0.0669X0.0787*%
%ADD13C,0.0594*%
%ADD14C,0.0740*%
%ADD15C,0.0550*%
%ADD16C,0.1187*%
%ADD17C,0.0080*%
%ADD18C,0.0360*%
D10*
X014431Y027589D03*
X014589Y027589D03*
X014746Y027589D03*
X014904Y027589D03*
X015061Y027589D03*
X015219Y027589D03*
X015376Y027589D03*
X015534Y027589D03*
X015691Y027589D03*
X015849Y027589D03*
X015770Y027983D03*
X015612Y027983D03*
X015455Y027983D03*
X015297Y027983D03*
X015140Y027983D03*
X014983Y027983D03*
X014825Y027983D03*
X014668Y027983D03*
X014510Y027983D03*
D11*
X014057Y028101D03*
X016223Y028101D03*
D12*
X016215Y029309D03*
X014057Y029360D03*
D13*
X010640Y025740D03*
X010640Y021803D03*
X010640Y017040D03*
X010640Y013103D03*
X010640Y007977D03*
X010640Y004040D03*
X019640Y004040D03*
X019640Y007977D03*
X019640Y013040D03*
X019640Y016977D03*
X019640Y021840D03*
X019640Y025777D03*
X028640Y025640D03*
X028640Y021703D03*
X028640Y016840D03*
X028640Y012903D03*
D14*
X024640Y010640D03*
X023640Y010640D03*
X015640Y010640D03*
X014640Y010640D03*
X006640Y010640D03*
X005640Y010640D03*
X005640Y001640D03*
X006640Y001640D03*
X014640Y001640D03*
X015640Y001640D03*
X015640Y019640D03*
X014640Y019640D03*
X006640Y019640D03*
X005640Y019640D03*
X023640Y019640D03*
X024640Y019640D03*
D15*
X024140Y015140D03*
X025140Y015140D03*
X025140Y024140D03*
X024140Y024140D03*
X016140Y024140D03*
X015140Y024140D03*
X007140Y024140D03*
X006140Y024140D03*
X006140Y015140D03*
X007140Y015140D03*
X015140Y015140D03*
X016140Y015140D03*
X016140Y006140D03*
X015140Y006140D03*
X007140Y006140D03*
X006140Y006140D03*
D16*
X004140Y004140D03*
X008140Y008140D03*
X004140Y013140D03*
X008140Y017140D03*
X004140Y022140D03*
X008140Y026140D03*
X013140Y022140D03*
X017140Y026140D03*
X022140Y022140D03*
X026140Y026140D03*
X026140Y017140D03*
X022140Y013140D03*
X017140Y017140D03*
X013140Y013140D03*
X017140Y008140D03*
X013140Y004140D03*
D17*
X015140Y006140D02*
X012040Y009240D01*
X012040Y025740D01*
X013340Y027040D01*
X014540Y027040D01*
X014746Y027246D01*
X014746Y027589D01*
X014589Y027589D02*
X014589Y027389D01*
X014440Y027240D01*
X012540Y027240D01*
X011540Y026240D01*
X011540Y008877D01*
X010640Y007977D01*
X010640Y017040D02*
X011240Y017640D01*
X011240Y027940D01*
X011840Y028540D01*
X014640Y028540D01*
X014825Y028355D01*
X014825Y027983D01*
X014668Y027983D02*
X014670Y028015D01*
X014670Y028240D01*
X014620Y028290D01*
X014230Y028290D01*
X014220Y028280D01*
X014120Y028100D01*
X014740Y028740D02*
X011740Y028740D01*
X010640Y027640D01*
X010640Y025740D01*
X014650Y026750D02*
X014740Y026850D01*
X014904Y027014D01*
X014904Y027589D01*
X015061Y027589D02*
X015061Y024219D01*
X015140Y024140D01*
X015219Y025361D02*
X016540Y024040D01*
X016540Y020077D01*
X019640Y016977D01*
X020740Y018040D02*
X022140Y016640D01*
X023440Y016640D01*
X024040Y016040D01*
X024040Y015240D01*
X024140Y015140D01*
X020740Y018040D02*
X020740Y026040D01*
X018440Y028340D01*
X016840Y028340D01*
X016640Y028540D01*
X015640Y028540D01*
X015455Y028355D01*
X015455Y027983D01*
X015610Y027973D02*
X015610Y028240D01*
X015660Y028290D01*
X016190Y028290D01*
X016200Y028300D01*
X016210Y028100D01*
X015612Y027983D02*
X015610Y027973D01*
X015297Y027983D02*
X015297Y028497D01*
X015540Y028740D01*
X016740Y028740D01*
X016940Y028540D01*
X020740Y028540D01*
X024140Y025140D01*
X024140Y024140D01*
X015520Y027080D02*
X015376Y027224D01*
X015376Y027589D01*
X015219Y027589D02*
X015219Y025361D01*
X015140Y027983D02*
X015140Y029290D01*
X014740Y028740D02*
X014983Y028497D01*
X014983Y027983D01*
D18*
X014120Y028100D03*
X015140Y029290D03*
X016210Y028100D03*
X015520Y027080D03*
X014650Y026750D03*
M02*
